<?xml version="1.0" encoding="UTF-8"?>
<svg id="Capa01" xmlns="http://www.w3.org/2000/svg" viewBox="0 0 1961.87 1213.26">
  <defs>
    <style>
      .cls-1 {
        stroke-width: 5px;
      }

      .cls-1, .cls-2, .cls-3, .cls-4 {
        fill: #009f37;
      }

      .cls-1, .cls-3, .cls-4 {
        stroke: #009f37;
        stroke-miterlimit: 10;
      }

      .cls-3 {
        stroke-width: 4px;
      }
    </style>
  </defs>
  <path id="Rama1" class="cls-2" d="M3.36,113.27c43.02,65.79,92.43,128.35,152.53,179.44,15.28,12.99,31.31,25.22,48.59,35.44,17.74,10.49,36.83,18.36,56.22,25.24,39.83,14.13,80.75,25.24,122.22,33.38,46.68,9.16,94.09,14.53,141.63,16.09,7.72.25,7.71-11.75,0-12-82.8-2.72-165.03-17.26-243.7-43.24-19.67-6.5-39.31-13.44-57.78-22.91-17.24-8.84-33.31-19.86-48.39-31.97-30.05-24.12-57.44-51.62-82.68-80.69-28.62-32.97-54.37-68.3-78.26-104.83-4.21-6.44-14.6-.43-10.36,6.06h0Z"/>
  <path id="Hoja6" class="cls-4" d="M101.65,230.11c-4.8-8.81-6.11-19.75-5.02-30.1s4.43-20.2,8.36-29.58c10.57-25.23,25.68-47.89,44.08-66.09,9.96,24.21,11.55,53.19,3.11,78.17s-27.12,45.31-49.49,52.11"/>
  <path id="Hoja1" class="cls-3" d="M519.17,391.13c-.04-10.68.64-23.06,8.81-30.69,2.84-2.65,6.28-4.38,9.61-6.18,10.45-5.67,20.43-12.54,29.66-20.44-1.14,13.53-5.1,27.02-9.86,40.16-2.7,7.47-5.99,15.33-12.17,20.31-7.44,6-17.12,6.3-25.74,5.44"/>
  <path id="Hoja2" class="cls-4" d="M149.85,287.94c-2.69,9.67-9.37,18.43-17.36,25.09-7.99,6.66-17.25,11.41-26.6,15.4-25.16,10.74-51.78,16.47-77.66,16.71,9.72-24.31,28.77-46.21,52.22-58.25,23.45-12.04,51.03-13.62,71.8-2.91"/>
  <path id="Hoja3" class="cls-4" d="M270.62,359.23c-1.19,8.27-5.84,16.04-11.84,22.14s-13.28,10.67-20.72,14.61c-20.03,10.62-41.86,17.13-63.68,19,5.48-20.99,19.1-40.56,37.54-52.16,18.45-11.6,41.55-14.7,60.29-7.07"/>
  <path id="Hoja4" class="cls-4" d="M198,313.98c-4.8-8.81-6.11-19.75-5.02-30.1s4.43-20.2,8.36-29.58c10.57-25.23,25.68-47.89,44.08-66.09,9.96,24.21,11.55,53.19,3.11,78.17s-27.12,45.31-49.49,52.11"/>
  <path id="Hoja5" class="cls-1" d="M341.47,369.5c-3.27-9.48-2.75-20.49.04-30.52s7.72-19.19,13.15-27.78c14.61-23.13,33.27-42.96,54.44-57.85,5.8,25.53,2.56,54.37-9.91,77.6-12.47,23.23-34.27,40.18-57.46,43.16"/>
  <path id="Rama2" class="cls-2" d="M1409.88,365.5c-4.6-22.45,24.09-35.7,41-41.26,21.67-7.13,45.25-8.96,67.66-4.45,39.96,8.03,74.49,37.11,86.83,76.35,11.85,37.67-.75,81.42-32.13,105.9-17.74,13.83-40.54,19.57-62.54,21.89-20.56,2.17-41.45,1.1-61.7-3.04-40.3-8.23-78.21-28.36-106.39-58.5-15.78-16.87-27.28-36.64-30.8-59.7-3.48-22.76.59-46.44,10.79-67.02,18.78-37.89,54.46-61.96,93.77-74.84,37.97-12.44,78-16.36,116.91-24.78,38.24-8.28,75.19-21.7,104.31-48.72s49.91-64.59,72.76-98.19c5.73-8.43,11.67-16.71,18.03-24.68,2.38-2.99-1.84-7.26-4.24-4.24-27.34,34.31-46.91,74.28-75.83,107.38-14.3,16.37-30.89,30.28-50.2,40.37-18.78,9.81-39.18,16.05-59.76,20.81-41.5,9.6-84.44,13.21-124.99,26.74-40.4,13.48-77.2,38.71-96.29,77.84-10.07,20.63-14.39,43.92-11.62,66.76s13.11,43.83,28.36,61.46c28.23,32.65,67.85,54.92,109.81,64.3,20.94,4.68,42.62,6.27,64,4.36,22.43-2,45.77-7.14,64.6-20.05,32.99-22.61,49.37-65.26,41.83-104.27-7.81-40.41-39.14-74.15-77.66-87.51-21.81-7.56-45.57-8.82-68.22-4.74-20.47,3.69-44.22,11.52-57.55,28.51-5.69,7.26-8.39,15.77-6.51,24.91.78,3.78,6.56,2.18,5.79-1.6h0Z"/>
  <path id="Hoja10" class="cls-4" d="M1410.16,368.58c9.72-2.49,20.65-1.08,30.41,2.52,9.76,3.6,18.5,9.25,26.62,15.36,21.86,16.44,40.12,36.65,53.25,58.95-25.91,3.72-54.4-1.86-76.54-16.17-22.14-14.31-37.27-37.42-38.37-60.76"/>
  <path id="Hoja9" class="cls-4" d="M1551.32,323.47c-1.23-9.96,1.56-20.62,6.37-29.84s11.53-17.17,18.63-24.45c19.09-19.59,41.46-35.12,65.26-45.3.38,26.18-8.78,53.72-25.8,73.85-17.02,20.14-41.86,32.2-65.16,30.31"/>
  <path id="Hoja8" class="cls-4" d="M1595.78,480.04c-1.86-7.12-.25-14.42,3.23-20.55s8.72-11.21,14.35-15.79c15.13-12.33,33.44-21.53,53.41-26.85,2.38,18.49-3.46,37.21-16.74,50.08-13.28,12.87-34.02,19.44-54.5,16.28"/>
  <path id="Hoja7" class="cls-4" d="M1309.23,380.66c4.89-8.97,5.95-19.95,4.45-30.26-1.5-10.3-5.4-20.04-9.92-29.28-12.16-24.86-29.13-46.99-49.49-64.56-9.95,24.54-10.74,53.56-.87,78.23,9.87,24.68,30.6,44.37,54.87,50.4"/>
  <path id="Rama3" class="cls-2" d="M1960.84,738.31c4.55-41.74-6.05-84.72-28.44-120.14-23.64-37.4-59.82-64.21-101.67-78.06-45.66-15.11-93.69-13.47-140.18-3.22-50.99,11.24-99.97,31.05-151.86,38.28-49.49,6.9-105.02.4-142.41-35.86-5.55-5.38-14.04,3.1-8.49,8.49,30.97,30.03,74.83,42.21,117.17,41.9,51.99-.37,101.66-17.71,151.14-31.64,46.8-13.17,95.03-22.77,143.54-13.59,43.03,8.15,83.04,29.27,110.84,63.55,29.36,36.21,43.41,84,38.37,130.29-.84,7.67,11.17,7.61,12,0h0Z"/>
  <path id="Hoja14" class="cls-4" d="M1389.41,544.67c-3.85-7.73-3.55-16.27-.72-23.8,2.83-7.53,8.04-14.18,13.81-20.33,15.54-16.55,35.63-30.12,58.61-39.59,7.05,20.5,4.19,42.67-8.98,59.52-13.17,16.85-36.8,27.86-62.31,27.82"/>
  <path id="Hoja13" class="cls-4" d="M1542.2,580.44c-9.83-.44-20.32,2.91-29.37,8.02-9.05,5.11-16.82,11.9-23.93,18.99-19.14,19.07-34.23,40.89-44.04,63.65,25.82-1.5,52.9-11.94,72.59-29.13,19.69-17.19,31.35-41.06,29.26-62.5"/>
  <path id="Hoja12" class="cls-4" d="M1629.82,559.36c10.01.6,19.99,5.3,28.18,11.71,8.19,6.41,14.77,14.47,20.64,22.78,15.78,22.35,26.96,47.18,32.63,72.43-25.81-4.4-51.21-18.43-67.91-38.84-16.69-20.41-24.02-47.04-17.9-69.6"/>
  <path id="Hoja11" class="cls-4" d="M1785.59,535.62c10.01.73,19.92,5.54,28.03,12.06,8.11,6.51,14.6,14.65,20.36,23.03,15.5,22.54,26.39,47.5,31.74,72.82-25.75-4.72-50.99-19.06-67.43-39.66-16.44-20.61-23.44-47.32-17.06-69.81"/>
  <path id="Rama4" class="cls-2" d="M319.4,604.2c-27.42-5.54-42.07-36.86-26.74-61,13.18-20.75,42.43-27.49,65.44-25.71,22.14,1.71,44,11.56,58.99,28.09,17.87,19.72,22.53,47.76,16.97,73.25-12.61,57.8-68.6,89.84-120.48,107.2-30.42,10.19-61.72,17.86-92.65,26.31-31.85,8.7-63.72,17.33-95.55,26.09-27.55,7.59-55.87,16.06-79.3,33.03-20.13,14.58-36.96,36.36-41.01,61.39-1,6.17-1.26,12.33-.67,18.55.54,5.72,9.55,5.77,9,0-2.68-28.37,13.88-54.69,35.98-71.25,25.17-18.87,56.36-27.02,86.21-35.17,34.06-9.3,68.13-18.6,102.19-27.9,32.67-8.92,65.92-16.86,97.45-29.36,52.55-20.82,104.22-60.18,109.67-120.68,2.39-26.54-6.11-53.47-25.57-72.04-17.1-16.32-40.4-25.51-63.9-26.67-24.53-1.21-52.9,6.85-68.27,27.12-16.85,22.22-10.82,54.42,11.89,69.95,5.4,3.69,11.56,6.2,17.95,7.49,5.66,1.14,8.07-7.53,2.39-8.68h0Z"/>
  <path id="Hoja18" class="cls-4" d="M326.94,508.86c-1.23-9.96,1.56-20.62,6.37-29.84s11.53-17.17,18.63-24.45c19.09-19.59,41.46-35.12,65.26-45.3.38,26.18-8.78,53.72-25.8,73.85-17.02,20.14-41.86,32.2-65.16,30.31"/>
  <path id="Hoja17" class="cls-4" d="M311.71,603.31c10.85-1.73,22.6.93,32.86,5.87s19.16,12.02,27.36,19.54c22.07,20.24,39.8,44.23,51.74,69.99-28.62,1.41-59.05-7.6-81.65-25.54-22.59-17.94-36.62-44.78-35.34-70.45"/>
  <path id="Hoja16" class="cls-4" d="M423.91,655.21c3.07-9.55,10.09-18.05,18.33-24.4,8.24-6.35,17.68-10.73,27.18-14.35,25.56-9.75,52.38-14.43,78.25-13.67-10.66,23.91-30.55,45.05-54.45,56.17-23.91,11.11-51.52,11.61-71.86.1"/>
  <path id="Hoja15" class="cls-4" d="M183.6,765.21c-9.39,3.55-20.41,3.34-30.5.84s-19.4-7.16-28.15-12.34c-23.54-13.94-43.9-32.02-59.4-52.74,25.35-6.54,54.27-4.13,77.85,7.66,23.58,11.79,41.16,33.09,44.81,56.18"/>
  <g id="Rama5">
    <path class="cls-2" d="M72.17,1174.65c-22.76-13.11-30.86-43.12-33.78-67.48-3.21-26.83.13-54.07,8.48-79.7,17.07-52.38,55.08-94.64,101.02-123.93,49.59-31.62,106.74-48.15,164.46-57.06,31.17-4.81,62.61-7.31,94.06-9.32,29.71-1.9,59.74-3.8,88.69-11.22,48.44-12.41,98.74-46.69,106.5-99.83.89-6.06,1.2-12.11.84-18.23-.45-7.68-12.45-7.73-12,0,1.46,25.11-9.53,48.45-26.51,66.49-18.8,19.97-43.18,32.26-69.44,39.32-29.88,8.03-60.93,9.72-91.66,11.69-31.64,2.03-63.25,4.78-94.59,9.66-58.35,9.09-116.27,26.16-166.4,58.12-46.58,29.7-85.05,71.8-104.14,124.17-9.39,25.74-13.94,53.62-12.12,81.01,1.72,25.79,8.12,54.38,25.51,74.36,4.27,4.91,9.4,9.04,15.03,12.29,6.7,3.86,12.75-6.5,6.06-10.36h0Z"/>
  </g>
  <path id="Hoja23" class="cls-4" d="M590.85,710.93c-1.23-9.96,1.56-20.62,6.37-29.84,4.81-9.22,11.53-17.17,18.63-24.45,19.09-19.59,41.46-35.12,65.26-45.3.38,26.18-8.78,53.72-25.8,73.85-17.02,20.14-41.86,32.2-65.16,30.31"/>
  <path id="Hoja22" class="cls-4" d="M520.12,812.03c-9.41,3.49-20.43,3.22-30.51.65-10.08-2.56-19.36-7.28-28.07-12.51-23.45-14.08-43.7-32.29-59.08-53.11,25.39-6.38,54.3-3.8,77.8,8.14,23.51,11.94,40.95,33.35,44.46,56.46"/>
  <path id="Hoja21" class="cls-4" d="M410.05,830.27c9.67-2.68,20.63-1.47,30.45,1.94,9.83,3.41,18.67,8.9,26.91,14.85,22.17,16.02,40.81,35.88,54.36,57.92-25.84,4.21-54.43-.82-76.83-14.71-22.41-13.89-37.98-36.7-39.52-60.02"/>
  <path id="Hoja20" class="cls-4" d="M226.53,865.61c-8.49,5.34-19.33,7.34-29.73,6.89s-20.44-3.16-30.04-6.49c-25.84-8.97-49.4-22.64-68.71-39.86,23.54-11.45,52.37-14.85,77.82-7.99,25.45,6.86,46.92,24.24,55.1,46.14"/>
  <path id="Hoja19" class="cls-4" d="M53.15,1002.99c1.17-9.96,6.42-19.65,13.29-27.47s15.29-13.93,23.91-19.31c23.21-14.48,48.63-24.24,74.16-28.47-5.86,25.51-21.31,50.09-42.63,65.59s-48.32,21.31-70.5,13.93"/>
  <path id="Rama6" class="cls-2" d="M830.14,686.72c5.77-10.57,4.67-23.34-1.34-33.6-6.36-10.86-17.52-17.97-28.89-22.67-25.38-10.48-55.05-11.21-80.36-.15-44.3,19.35-64.52,72.16-55.84,117.76,4.79,25.17,17.42,48.36,34.08,67.63,17.21,19.9,38.85,34.49,61.54,47.43,22.55,12.86,46.18,24.46,66.5,40.8,21.59,17.36,36.9,40,45.18,66.45,19.1,60.97,1.98,126.41-11.7,186.65-1.8,7.94-3.65,15.86-5.52,23.78-.89,3.75,4.9,5.36,5.79,1.6,7.2-30.4,14.32-60.93,19.69-91.71s8.19-59.2,4.53-88.79c-3.09-24.98-10.66-49.75-24.68-70.84-13.58-20.43-32.84-35.7-53.52-48.47-20.74-12.81-42.76-23.43-63.24-36.69-21.57-13.98-40.64-31.53-54.4-53.4-13.02-20.7-21.1-44.86-20.37-69.49.69-23.21,9-46.7,24.13-64.45,19-22.3,47.42-32.46,76.38-29.83,15.11,1.37,31.11,6,43.59,14.86s21.28,25.43,13.26,40.12c-1.85,3.39,3.33,6.42,5.18,3.03h0Z"/>
  <path id="Hoja27" class="cls-4" d="M822.96,685.09c.64-7.19,4.28-14.13,9.15-19.7s10.92-9.9,17.13-13.69c16.72-10.21,35.18-16.98,53.85-19.75-3.73,18.37-14.53,35.96-29.84,46.93-15.32,10.97-35.02,14.86-51.48,9.29"/>
  <path id="Hoja26" class="cls-4" d="M667.07,717.31c5.27,8.54,7.17,19.4,6.63,29.79s-3.34,20.41-6.75,29.98c-9.2,25.76-23.07,49.2-40.46,68.36-11.25-23.64-14.39-52.49-7.31-77.89,7.09-25.39,24.65-46.71,46.62-54.69"/>
  <path id="Hoja25" class="cls-4" d="M727.64,833.28c7.1-7.08,17.24-11.42,27.47-13.28s20.63-1.43,30.73-.3c27.18,3.05,53.17,11.18,75.81,23.72-20.43,16.37-47.8,26.04-74.14,24.96s-51.11-13.29-63.92-32.85"/>
  <path id="Hoja24" class="cls-4" d="M861.86,938.12c6.31,7.8,9.57,18.33,10.36,28.7s-.72,20.67-2.9,30.6c-5.86,26.72-16.65,51.72-31.47,72.94-14.15-22.02-20.93-50.25-17.12-76.33,3.81-26.09,18.53-49.45,39.31-60.16"/>
  <path id="Rama7" class="cls-2" d="M1001.2,675.22c-13.2,74.46-3.42,151.98,27.75,220.87,7.87,17.41,17.05,34.38,27.89,50.13,11.2,16.27,24.56,30.27,39.37,43.28,14.37,12.62,29.01,24.8,41.94,38.95,11.85,12.97,22.4,27.04,31.61,41.99,20.78,33.74,34.64,71.83,39.81,111.15.43,3.24,2.45,5.96,6,6,2.92.03,6.42-2.79,6-6-9.24-70.24-43.53-135.47-96.36-182.72-14.61-13.07-30.14-25.22-43.26-39.86-13.11-14.63-23.55-31.5-32.73-48.81-17.59-33.15-29.71-69.1-36.3-106.02-7.4-41.45-7.49-84.31-.13-125.77,1.34-7.55-10.22-10.79-11.57-3.19h0Z"/>
  <path id="Hoja31" class="cls-4" d="M999.97,689.01c-1.23-9.96,1.56-20.62,6.37-29.84s11.53-17.17,18.63-24.45c19.09-19.59,41.46-35.12,65.26-45.3.38,26.18-8.78,53.72-25.8,73.85-17.02,20.14-41.86,32.2-65.16,30.31"/>
  <path id="Hoja30" class="cls-4" d="M1001.48,790.27c6.69,7.47,10.48,17.83,11.79,28.15,1.31,10.32.32,20.68-1.35,30.7-4.5,26.98-14.02,52.5-27.75,74.43-15.25-21.28-23.44-49.13-20.95-75.37s16.01-50.33,36.23-62.06"/>
  <path id="Hoja29" class="cls-4" d="M1090.94,976.61c-1.23-9.96,1.56-20.62,6.37-29.84s11.53-17.17,18.63-24.45c19.09-19.59,41.46-35.12,65.26-45.3.38,26.18-8.78,53.72-25.8,73.85-17.02,20.14-41.86,32.2-65.16,30.31"/>
  <path id="Hoja28" class="cls-4" d="M1194.51,1098.34c-3.84-8.91-11.23-17.05-19.55-23.28-8.31-6.23-17.53-10.72-26.72-14.51-24.74-10.21-50.14-15.85-74.08-16.44,12.37,22.45,33.03,42.82,56.38,54.21,23.35,11.38,49.04,13.22,66.74,3.69"/>
  <path id="Rama8" class="cls-2" d="M664.99,83.6c32.96,5.29,62.62,23.58,83.22,49.74,10.03,12.74,17.75,27.44,22.35,42.99,5.9,19.96,6.21,41.04,3.92,61.6-8.21,73.62-47.6,143.24-104.97,189.74-33.04,26.78-77.52,52.37-78.88,100.35-.22,7.72,11.78,7.72,12,0,1.22-43.3,45.05-67.42,74.75-91.36,29.14-23.5,53.65-52.83,72.07-85.39s31.49-70.47,36.45-108.62c5.06-38.92-.64-77.79-23.59-110.31-22.08-31.29-56.08-54.19-94.13-60.3-7.55-1.21-10.81,10.35-3.19,11.57h0Z"/>
  <path id="Hoja35" class="cls-4" d="M594.25,527.17c7.27-6.91,17.51-11,27.79-12.61,10.28-1.61,20.66-.93,30.73.45,27.1,3.71,52.89,12.47,75.21,25.56-20.83,15.86-48.42,24.87-74.73,23.15-26.31-1.72-50.77-14.53-63.1-34.39"/>
  <path id="Hoja34" class="cls-4" d="M675.51,428.9c-9.41-3.47-17.6-10.85-23.59-19.35s-9.96-18.12-13.18-27.77c-8.65-25.95-12.18-52.95-10.31-78.76,23.43,11.67,43.71,32.44,53.79,56.8,10.08,24.36,9.4,51.97-2.96,71.8"/>
  <path id="Hoja33" class="cls-4" d="M755.48,326.99c-1.23-9.96,1.56-20.62,6.37-29.84,4.81-9.22,11.53-17.17,18.63-24.45,19.09-19.59,41.46-35.12,65.26-45.3.38,26.18-8.78,53.72-25.8,73.85-17.02,20.14-41.86,32.2-65.16,30.31"/>
  <path id="Hoja32" class="cls-4" d="M782.14,199.89c-1.8-10.17-7.95-19.34-15.73-26.28-7.78-6.93-17.12-11.83-26.64-15.92-25.62-11.02-53.35-16.72-80.89-16.65,7.67,25.55,25.54,48.43,49.2,60.84,23.66,12.41,52.86,13.72,76.18,2.15"/>
  <path id="Rama9" class="cls-2" d="M1428.28,97.26c-38.61,6.14-73.98,22.43-104.46,46.78s-52.93,52.5-73.61,83.32c-23.25,34.65-42.79,71.57-64.22,107.34-10.12,16.9-20.48,34.02-34.56,47.97s-30.25,22.44-48.46,27.5c-44.54,12.37-90.92-.08-132.1-18-5.26-2.29-9.85,5.46-4.54,7.77,37.22,16.19,77.76,28.27,118.72,22.94,18.17-2.36,36.01-7.9,51.74-17.42s29.24-24.08,40.14-39.68c23.84-34.11,42.42-71.86,64.1-107.34,20.64-33.78,43.59-66.42,72.56-93.63,32.84-30.84,72.38-51.76,117.07-58.87,5.7-.91,3.28-9.58-2.39-8.68h0Z"/>
  <path id="Hoja39" class="cls-4" d="M963.65,394.76c-1.23-9.96,1.56-20.62,6.37-29.84,4.81-9.22,11.53-17.17,18.63-24.45,19.09-19.59,41.46-35.12,65.26-45.3.38,26.18-8.78,53.72-25.8,73.85-17.02,20.14-41.86,32.2-65.16,30.31"/>
  <path id="Hoja38" class="cls-4" d="M1018.5,417.51c9.86-1.83,20.68.32,30.17,4.57,9.5,4.25,17.83,10.48,25.52,17.12,20.7,17.88,37.55,39.28,49.14,62.41-26.11,1.95-54.15-5.53-75.27-21.31-21.12-15.78-34.65-39.85-34.17-63.22"/>
  <path id="Hoja37" class="cls-4" d="M1149.17,382.08c-8.17-5.82-14.13-15.09-17.67-24.88s-4.85-20.11-5.41-30.25c-1.52-27.31,2.17-54.29,10.76-78.7,19.54,17.42,33.63,42.8,36.96,68.95,3.32,26.15-4.6,52.61-21.74,68.49"/>
  <path id="Hoja36" class="cls-4" d="M1236.14,247.69c-8.58-5.19-15.23-13.99-19.5-23.47-4.27-9.49-6.35-19.68-7.68-29.76-3.57-27.12-1.93-54.3,4.8-79.29,20.8,15.9,36.77,40.14,42.05,65.97,5.29,25.83-.61,52.81-16.52,69.94"/>
  <path id="Rama10" class="cls-2" d="M1226.46,909.26c-41.32-27.43-25.24-89.77,16.76-106.95,21.65-8.86,47.04-6.51,67.69,3.99,20.94,10.64,36.54,29.8,45.38,51.33,9.57,23.31,11.24,49.06,6.87,73.75-4.75,26.82-16.19,51.19-29.93,74.49-13.45,22.83-27.24,45.18-35.47,70.55-7.33,22.59-11.96,47.45-8.81,71.21,3.32,25.06,17.04,45.95,40.3,56.63,27.39,12.57,57.93,9.36,86.93,5.89,3.79-.45,3.83-6.46,0-6-27.79,3.33-57.57,6.89-83.91-5.07-23.88-10.84-36.31-32.84-38.04-58.46s4.92-53.75,14.97-78.01c10.86-26.24,27.89-49.19,40.71-74.42,23.01-45.28,31.3-100.9,5.11-146.73-11.39-19.93-28.75-36.11-50.28-44.42s-45.78-8.51-66.65,1c-21.1,9.62-36.57,30.13-40.82,52.86-4.6,24.62,5.1,49.56,26.16,63.54,3.23,2.14,6.23-3.05,3.03-5.18h0Z"/>
  <path id="Hoja44" class="cls-4" d="M1224.52,910.8c-1.24-7.14.63-14.67,4.09-21.12,3.47-6.45,8.44-11.93,13.73-16.92,14.23-13.45,31.11-23.9,49.24-30.49,1.03,18.7-5.28,38.1-17.89,51.99s-31.5,21.8-49.59,19.8"/>
  <path id="Hoja43" class="cls-4" d="M1350.84,976.35c-1.24-7.14.63-14.67,4.09-21.12,3.47-6.45,8.44-11.93,13.73-16.92,14.23-13.45,31.11-23.9,49.24-30.49,1.03,18.7-5.28,38.1-17.89,51.99-12.61,13.89-31.5,21.8-49.59,19.8"/>
  <path id="Hoja42" class="cls-4" d="M1292.1,1112.65c-1.24-7.14.63-14.67,4.09-21.12,3.47-6.45,8.44-11.93,13.73-16.92,14.23-13.45,31.11-23.9,49.24-30.49,1.03,18.7-5.28,38.1-17.89,51.99-12.61,13.89-31.5,21.8-49.59,19.8"/>
  <path id="Hoja41" class="cls-4" d="M1202.86,851.22c3.67-5.75,4.31-12.63,2.94-18.99-1.37-6.36-4.6-12.29-8.32-17.88-10-15.05-23.72-28.24-40.02-38.47-7.36,15.62-7.45,33.71.75,48.73,8.19,15.02,24.83,26.56,43.98,29.47"/>
  <path id="Hoja40" class="cls-4" d="M1327.42,811.44c3.67-5.75,4.31-12.63,2.94-18.99-1.37-6.36-4.6-12.29-8.32-17.88-10-15.05-23.72-28.24-40.02-38.47-7.36,15.62-7.45,33.71.75,48.73,8.19,15.02,24.83,26.56,43.98,29.47"/>
  <path id="Rama11" class="cls-2" d="M1355.77,655.93c-10.05,38.61-8.85,80.05,4.09,117.85,12.79,37.37,36.31,69.82,61.27,99.98s54.69,60.36,83.6,89.02c28.47,28.22,59.73,55.6,82.16,89.11,24.12,36.05,36.18,79.2,34.64,122.51-.27,7.72,11.73,7.71,12,0,1.34-37.83-7.29-75.78-24.85-109.32-18.55-35.42-47.61-63.39-75.7-91.23-28.93-28.67-58.15-57.12-85.27-87.55-26.18-29.37-51.75-60.77-68.55-96.61-19.04-40.61-23.09-87.22-11.81-130.57,1.95-7.48-9.62-10.67-11.57-3.19h0Z"/>
  <path id="Hoja50" class="cls-4" d="M1364.74,664.12c3.67-5.75,4.31-12.63,2.94-18.99-1.37-6.36-4.6-12.29-8.32-17.88-10-15.05-23.72-28.24-40.02-38.47-7.36,15.62-7.45,33.71.75,48.73,8.19,15.02,24.83,26.56,43.98,29.47"/>
  <path id="Hoja49" class="cls-4" d="M1367.2,777.39c-6.67-6.62-8.96-15.26-8.13-23.64.83-8.38,4.57-16.56,9.11-24.41,12.2-21.13,30.37-40.61,53.02-56.81,14.16,18.48,17.81,41.53,8.34,62.27s-32.37,38.68-60.76,46.11"/>
  <path id="Hoja48" class="cls-4" d="M1417.73,862.15c-4.62-6.32-5.52-13.86-3.95-20.84s5.46-13.48,9.95-19.62c12.07-16.51,28.75-30.97,48.66-42.19,9.34,17.15,9.76,37-.08,53.48-9.84,16.48-30.14,29.13-53.7,32.31"/>
  <path id="Hoja47" class="cls-4" d="M1491.01,940.34c-6.67-6.62-8.96-15.26-8.13-23.64s4.57-16.56,9.11-24.41c12.2-21.13,30.37-40.61,53.02-56.81,14.16,18.48,17.81,41.53,8.34,62.27-9.47,20.74-32.37,38.68-60.76,46.11"/>
  <path id="Hoja46" class="cls-4" d="M1559.88,1015.28c-2.69-8.66-9.1-14.85-16.71-18.41-7.61-3.56-16.37-4.7-25.2-5.04-23.78-.92-48.84,3.78-73.11,13.7,9.53,20.63,27.76,35.16,49.96,38.06,22.2,2.89,48.08-6.35,67.39-25.28"/>
  <path id="Hoja45" class="cls-4" d="M1625.37,1120.31c-2.69-8.66-9.1-14.85-16.71-18.41-7.61-3.56-16.37-4.7-25.2-5.04-23.78-.92-48.84,3.78-73.11,13.7,9.53,20.63,27.76,35.16,49.96,38.06,22.2,2.89,48.08-6.35,67.39-25.28"/>
  <path id="Rama12" class="cls-2" d="M902.58,514.66c10.96-5.72,21.05,5.85,23.2,15.53,2.48,11.17-.13,24.89-5.45,34.93-11.64,21.99-41.08,20.7-60.84,11.34-20.17-9.55-36.23-27.61-43.56-48.67-9.04-25.96-6.68-54.31,1.73-80.1s23.48-49.44,39.86-71.17c17.45-23.14,36.51-45.1,54.99-67.41,36.17-43.68,75.55-86.67,99.66-138.58,24.7-53.17,35.9-112.49,68.82-161.76,4.3-6.44-6.09-12.45-10.36-6.06-32.17,48.14-43.57,105.72-67.06,157.91-25.69,57.07-69.53,103.76-109.03,151.46-38.05,45.94-83.2,93.47-93.99,154.41-4.85,27.41-2.64,56.89,11.48,81.39,12.14,21.05,32.49,38.25,56.22,44.43,12.18,3.17,25.86,3.64,37.92-.33,12.65-4.17,21.64-13.46,26.75-25.61,9.05-21.49,9.42-58.86-19.76-64.52-5.82-1.13-11.39-.31-16.64,2.44-6.85,3.58-.79,13.94,6.06,10.36h0Z"/>
  <path id="Hoja55" class="cls-4" d="M807.6,468.24c-2.69-8.66-9.1-14.85-16.71-18.41-7.61-3.56-16.37-4.7-25.2-5.04-23.78-.92-48.84,3.78-73.11,13.7,9.53,20.63,27.76,35.16,49.96,38.06,22.2,2.89,48.08-6.35,67.39-25.28"/>
  <path id="Hoja54" class="cls-4" d="M986.01,206.56c-2.69-8.66-9.1-14.85-16.71-18.41-7.61-3.56-16.37-4.7-25.2-5.04-23.78-.92-48.84,3.78-73.11,13.7,9.53,20.63,27.76,35.16,49.96,38.06,22.2,2.89,48.08-6.35,67.39-25.28"/>
  <path id="Hoja53" class="cls-4" d="M899.45,511.84c9.07.16,16.96-3.99,22.72-10.09,5.77-6.11,9.59-14.07,12.69-22.35,8.33-22.29,11.73-47.56,9.92-73.72-22.57,2.58-42.1,15.33-51.81,35.51-9.71,20.17-9.05,47.65,2.87,71.91"/>
  <path id="Hoja52" class="cls-4" d="M856.62,579.41c-2.69-8.66-9.1-14.85-16.71-18.41-7.61-3.56-16.37-4.7-25.2-5.04-23.78-.92-48.84,3.78-73.11,13.7,9.53,20.63,27.76,35.16,49.96,38.06,22.2,2.89,48.08-6.35,67.39-25.28"/>
  <path id="Hoja51" class="cls-4" d="M871.75,347.96c-2.68-6.85-8.22-11.43-14.56-13.79-6.35-2.36-13.48-2.67-20.63-2.33-19.24.92-39.18,6.5-58.19,16.26,8.9,16.09,24.46,26.63,42.54,27.42,18.08.79,38.42-8.53,52.89-25.27"/>
  <path id="Rama13" class="cls-2" d="M1941.14,1039.16c12.76-39.49,7.67-84.09-13.33-119.87-20.39-34.74-55.96-59.42-95.22-67.84-20.5-4.4-41.16-4.03-61.68.01-22.42,4.41-43.98,12.32-66.42,16.61-20.7,3.96-42.45,4.03-61.79-5.28-16.97-8.16-31.1-21.59-40.01-38.18-20.5-38.18-5.56-88.05,30.87-110.7,6.55-4.07.53-14.45-6.06-10.36-33.29,20.7-51.69,61.53-44.74,100.18,6.69,37.19,37.97,68.88,74.83,76.73,46.64,9.94,89.58-16.91,135.24-20.03,40.76-2.79,81.99,13.9,109.43,44.15,31.73,34.98,41.75,86.71,27.32,131.38-2.38,7.37,9.2,10.52,11.57,3.19h0Z"/>
  <path id="Hoja59" class="cls-4" d="M1635.69,703.22c-2.69-8.66-9.1-14.85-16.71-18.41-7.61-3.56-16.37-4.7-25.2-5.04-23.78-.92-48.84,3.78-73.11,13.7,9.53,20.63,27.76,35.16,49.96,38.06,22.2,2.89,48.08-6.35,67.39-25.28"/>
  <path id="Hoja58" class="cls-4" d="M1594.07,821.06c5.38,7.3,13.47,11.04,21.83,11.9,8.35.87,17.01-.94,25.46-3.52,22.76-6.94,44.89-19.61,64.56-36.95-15.77-16.35-37.77-24.1-59.69-19.54-21.92,4.56-43.33,21.79-55.35,46"/>
  <path id="Hoja57" class="cls-4" d="M1726.55,866.76c-7.56-5.01-16.44-5.75-24.59-3.69-8.14,2.05-15.65,6.72-22.71,12.04-19,14.33-35.44,33.82-47.96,56.85,20.42,9.95,43.74,9.68,62.77-2.12,19.02-11.8,33.23-35.33,36.21-62.2"/>
  <path id="Hoja56" class="cls-4" d="M1778.32,855.19c8.32,3.62,17.19,2.8,24.86-.64,7.66-3.44,14.25-9.33,20.27-15.8,16.22-17.41,29.02-39.46,37.36-64.32-21.84-6.25-44.76-1.93-61.45,13-16.69,14.93-26.58,40.57-24.85,67.55"/>
  <path id="Rama14" class="cls-2" d="M623.87,1174.59c-.85-35.36-34.81-57.44-65.76-65.36-39.93-10.21-81.47-3.12-121.57,2.11-39.61,5.17-82.84,9.61-120.81-5.9-14.83-6.05-29.34-15.48-38.76-28.67-10.71-15-12.49-32.77-6.78-50.16,10.85-33.04,40.07-57.73,71.37-70.78,34.36-14.33,72.29-15.46,108.45-8.05,40.33,8.27,77.17,26.2,113.09,45.72,17.58,9.55,35.17,19.14,53.61,26.93,16.53,6.98,34.2,13.31,52.26,14.37,14.99.88,31.3-2.69,40.84-15.2,10.75-14.1,9.15-33.57,5.25-49.83-8.28-34.55-31.51-63.38-56.81-87.32-6.58-6.23-13.39-12.2-20.33-18.02-4.41-3.7-10.81,2.63-6.36,6.36,26.96,22.66,53.6,48.42,68.03,81.17,6.94,15.76,12.79,36.05,7.66,53.13s-22.89,21.75-38.98,20.67c-18.41-1.23-36.77-8.43-53.45-15.89-18.02-8.05-35.27-17.7-52.62-27.09-35.27-19.09-71.97-36.2-111.56-44.03-35.74-7.06-73.04-6.31-107.33,6.76-30.23,11.52-57.58,31.89-73.63,60.39-8.99,15.98-14.44,34.6-10.54,52.9,3.17,14.85,12.42,27.85,23.93,37.48,28.35,23.73,66.77,29.48,102.64,28.63,41.31-.98,81.83-11.16,123.16-11.85,34.96-.58,79.31,6.42,99.27,39.09,4.19,6.85,6.54,14.38,6.74,22.42.14,5.78,9.14,5.8,9,0h0Z"/>
  <path id="Hoja66" class="cls-4" d="M303.24,973.29c-2.69-8.66-9.1-14.85-16.71-18.41-7.61-3.56-16.37-4.7-25.2-5.04-23.78-.92-48.84,3.78-73.11,13.7,9.53,20.63,27.76,35.16,49.96,38.06,22.2,2.89,48.08-6.35,67.39-25.28"/>
  <path id="Hoja65" class="cls-4" d="M288.78,1091.89c-5.12-9.82-13.82-14.92-23.23-16.18-9.41-1.26-19.53,1.04-29.53,4.38-26.93,8.99-53.94,25.62-78.8,48.54,15.7,22.05,39.7,32.68,65.34,26.87,25.64-5.81,52.47-28.56,69.57-60.76"/>
  <path id="Hoja64" class="cls-4" d="M426.35,935c2.76-6.98,1.71-14.1-1.53-20.07-3.23-5.96-8.52-10.88-14.28-15.3-15.49-11.91-34.8-20.74-56.33-25.75-4.46,18.11.13,36.35,13.52,48.81,13.39,12.46,35.65,18.69,58.58,15.41"/>
  <path id="Hoja63" class="cls-4" d="M666.5,896.28c.98-9.02-2.44-17.25-7.99-23.54-5.56-6.3-13.15-10.83-21.11-14.66-21.44-10.31-46.3-15.98-72.52-16.55.52,22.71,11.46,43.31,30.67,54.81,19.21,11.49,46.63,13.32,71.88,3.65"/>
  <path id="Hoja62" class="cls-4" d="M674.48,1031.32c.32,9.06,4.89,16.72,11.3,22.15,6.41,5.43,14.57,8.82,23,11.47,22.71,7.11,48.12,9.15,74.15,5.94-3.79-22.4-17.58-41.21-38.24-49.82-20.66-8.61-48.07-6.47-71.65,6.73"/>
  <path id="Hoja61" class="cls-4" d="M457.65,1115.09c-.74,9.04,2.89,17.18,8.62,23.32s13.43,10.47,21.5,14.09c21.71,9.73,46.71,14.74,72.93,14.61-1.13-22.69-12.61-42.99-32.12-53.97-19.51-10.98-46.97-12.08-71.95-1.73"/>
  <path id="Hoja60" class="cls-4" d="M519.96,974.28c-5.25,7.39-6.28,16.25-4.49,24.46,1.79,8.21,6.2,15.86,11.3,23.09,13.7,19.45,32.65,36.52,55.26,49.79,10.61-20.09,11.1-43.41-.08-62.8-11.17-19.4-34.23-34.36-60.99-38.21"/>
  <path id="Rama15" class="cls-2" d="M586.26,203.12c13.97-8.91,32.65-8.98,46.47.4s19.84,26.87,16.59,42.55c-3.44,16.64-17.17,27.99-31.61,35.39-16.61,8.52-35.72,13.91-54.22,16.11s-38.66.53-56.46-7.11c-14.96-6.42-28.15-16.35-39.47-27.95-25.2-25.83-39.81-58.32-54.39-90.78-16.18-36.03-36.98-73.66-75.9-88.6-5.41-2.08-7.75,6.62-2.39,8.68,38.86,14.92,57.71,55.64,73.49,91.13,15.15,34.06,32.16,67.95,60.41,93.2,13.09,11.7,28.25,21.11,45.06,26.39,20.29,6.38,41.97,6.06,62.69,2.02,32.58-6.34,77.59-22.42,82.23-60.78,2.25-18.63-6.23-38.15-22.08-48.41s-38.59-10.44-54.94,0c-4.87,3.11-.36,10.9,4.54,7.77h0Z"/>
  <path id="Hoja71" class="cls-4" d="M399.89,147.7c-2.69-8.66-9.1-14.85-16.71-18.41-7.61-3.56-16.37-4.7-25.2-5.04-23.78-.92-48.84,3.78-73.11,13.7,9.53,20.63,27.76,35.16,49.96,38.06,22.2,2.89,48.08-6.35,67.39-25.28"/>
  <path id="Hoja70" class="cls-4" d="M428.59,221.46c-2.69-8.66-9.1-14.85-16.71-18.41-7.61-3.56-16.37-4.7-25.2-5.04-23.78-.92-48.84,3.78-73.11,13.7,9.53,20.63,27.76,35.16,49.96,38.06,22.2,2.89,48.08-6.35,67.39-25.28"/>
  <path id="Hoja69" class="cls-4" d="M486.66,281.34c4.61,6.41,11.74,10.1,19.19,11.44,7.45,1.34,15.24.52,22.88-.97,20.56-3.98,40.73-12.72,58.82-25.49-13.65-14.64-33.11-22.67-52.85-20.59-19.74,2.09-39.39,14.63-50.84,33.63"/>
  <path id="Hoja68" class="cls-4" d="M589.95,197.66c.87-9.41-2.73-18.24-8.47-25.16-5.74-6.92-13.51-12.1-21.66-16.57-21.93-12.02-47.26-19.36-73.89-21.42.87,23.87,12.28,46.11,31.96,59.25,19.68,13.14,47.56,16.59,73.05,7.84"/>
  <path id="Hoja67" class="cls-4" d="M643.53,269.42c4.61,6.41,11.74,10.1,19.19,11.44,7.45,1.34,15.24.52,22.88-.97,20.56-3.98,40.73-12.72,58.82-25.49-13.65-14.64-33.11-22.67-52.85-20.59-19.74,2.09-39.39,14.63-50.84,33.63"/>
  <path id="Rama16" class="cls-2" d="M7.26,511.18c-6.72-14.65,10.53-27.96,21.51-34.1,13.28-7.43,27.72-12.54,42.57-15.79,31.06-6.79,63.35-5.44,94.61-.83,33.69,4.97,66.74,13.43,100.3,19.15,14.51,2.48,30.83,5.94,44.91-.16,10.38-4.49,19.12-14.74,17.95-26.58-1.41-14.36-15.32-26.23-26.76-33.38-13.32-8.32-28.89-12.56-44.58-12.28-3.86.07-3.87,6.07,0,6,14.41-.26,28.56,3.51,40.87,11.04,10.73,6.55,27.33,19.8,24.21,34.19-3.43,15.82-22.22,19.12-35.69,18.1-16.64-1.27-33.3-5.15-49.62-8.48-59.34-12.11-121.9-27.27-181.68-8.94-14.41,4.42-29.64,10.6-41.36,20.29-10.24,8.48-18.53,21.51-12.44,34.79,1.61,3.51,6.78.46,5.18-3.03h0Z"/>
  <path id="Hoja76" class="cls-4" d="M27.96,477.51c2.06,5.66,6.53,10.16,11.72,13.13,5.19,2.97,11.08,4.55,16.99,5.63,15.91,2.92,32.51,2.48,48.42-1.3-6.99-13.8-19.61-24.66-34.53-28.66-14.92-4-31.92-.8-44.24,9.08"/>
  <path id="Hoja75" class="cls-4" d="M166.84,457.14c4.48,3.55,10.18,4.72,15.64,4.19s10.73-2.64,15.77-5.18c13.55-6.82,25.89-16.87,35.99-29.32-12.4-7.51-27.56-9.27-40.91-3.93-13.36,5.34-24.58,17.94-28.82,33.42"/>
  <path id="Hoja74" class="cls-4" d="M257.04,409.34c3.71,1.42,7.69.96,11.13-.59s6.4-4.13,9.11-6.94c7.3-7.57,13.08-17.05,16.87-27.66-9.76-2.36-20.03-.24-27.53,6.28-7.5,6.52-11.99,17.49-11.28,28.86"/>
  <path id="Hoja73" class="cls-4" d="M266.29,475.37c3.63,1.5,7.66,1.23,11.23-.1,3.57-1.33,6.73-3.66,9.65-6.22,7.88-6.89,14.36-15.67,18.93-25.6-9.65-2.64-20.12-1.05-28.13,4.84-8.01,5.89-13.3,16.13-13.39,26.97"/>
  <path id="Hoja72" class="cls-4" d="M220,467.25c-1.78,5.05-1.18,10.58.79,15.45,1.97,4.87,5.24,9.14,8.8,13.09,9.58,10.63,21.57,19.29,34.99,25.26,2.94-13.36.22-27.72-8.04-38.56-8.26-10.84-22.12-17.81-36.48-17.6"/>
  <g id="Rama17">
    <path class="cls-2" d="M1577.9,895.87c3.06,24.88,6.79,51.47,24.59,70.6,16.83,18.09,41.66,25.03,64.21,32.97,23.84,8.39,47.21,18.84,67.87,33.55,21.44,15.26,38.18,35.44,48.81,59.53,12.01,27.23,16.46,57.32,19.04,86.74.67,7.63,12.68,7.7,12,0-4.57-52.18-16.2-105.94-56.45-142.72-18.64-17.03-40.88-29.52-64.01-39.35-23.02-9.78-48.83-15.05-70.07-28.57-25.4-16.17-30.57-44.96-33.99-72.75-.93-7.57-12.94-7.66-12,0h0Z"/>
  </g>
  <path id="Hoja82" class="cls-4" d="M1579.39,894.47c2.48,2.25,5.7,3.04,8.81,2.79s6.15-1.47,9.06-2.95c7.84-3.99,15.04-9.99,21.03-17.49-6.9-4.78-15.49-6.08-23.18-2.99-7.7,3.09-14.32,10.66-17.03,20.1"/>
  <path id="Hoja81" class="cls-4" d="M1598.54,942.3c-3.23-3.46-7.83-5.31-12.48-5.83s-9.37.18-13.96,1.25c-12.35,2.87-24.16,8.4-34.44,16.13,9.28,7.8,21.71,11.71,33.68,9.93,11.97-1.78,23.22-9.43,29.04-20.45"/>
  <path id="Hoja80" class="cls-4" d="M1640.46,981.85c4.52,3.99,10.59,5.8,16.57,5.93,5.98.13,11.9-1.3,17.62-3.17,15.37-5.04,29.74-13.36,41.91-24.29-12.74-8.78-29.02-12.29-44.03-8.67-15.01,3.62-28.42,14.56-34.52,29.13"/>
  <path id="Hoja79" class="cls-4" d="M1706.63,1006.21c-5.39,2.7-9.34,7.66-11.7,13.15-2.36,5.5-3.25,11.53-3.65,17.52-1.08,16.14,1.27,32.58,6.85,47.95,12.9-8.53,22.25-22.32,24.51-37.59,2.26-15.28-2.87-31.81-14.1-42.91"/>
  <path id="Hoja78" class="cls-4" d="M1779.81,1075.65c2.06,5.66,6.53,10.16,11.72,13.13,5.19,2.97,11.08,4.55,16.99,5.63,15.91,2.92,32.51,2.48,48.42-1.3-6.99-13.8-19.61-24.66-34.53-28.66-14.92-4-31.92-.8-44.24,9.08"/>
  <path id="Hoja77" class="cls-4" d="M1798.42,1116.94c-5.82-1.57-12.07-.49-17.48,2.05s-10.09,6.46-14.37,10.67c-11.53,11.34-20.7,25.19-26.74,40.38,15.31,2.2,31.45-1.89,43.3-11.8,11.84-9.91,18.99-25.67,17.97-41.43"/>
  <path id="Hoja87" class="cls-4" d="M1745.12,426.36c-7.81.48-15.54-2.49-21.85-7.09s-11.34-10.75-15.8-17.17c-12.01-17.29-20.4-37.13-24.47-57.87,20.1,1.16,39.75,10.48,52.5,26.04,12.75,15.56,18.1,37.3,13,56.94"/>
  <path id="Hoja86" class="cls-4" d="M1768.88,395.31c-.92-7.61,1.58-15.28,5.75-21.65s9.94-11.55,16.01-16.19c16.34-12.5,35.4-21.57,55.58-26.48,0,19.67-8.07,39.27-22.67,52.42-14.6,13.14-35.7,19.34-55.31,15.25"/>
  <path id="Hoja85" class="cls-4" d="M1791.28,325.7c-6.34,3.23-13.2,2.91-19.16.43-5.97-2.48-11.15-6.99-15.91-11.98-12.81-13.43-23.08-30.73-29.96-50.47,16.72-5.87,34.46-3.25,47.58,8.16,13.13,11.41,21.22,31.72,20.38,53.55"/>
  <path id="Hoja84" class="cls-4" d="M1808.33,227.77c-7.65,2.86-16.45,2.44-24.41.06-7.96-2.38-15.2-6.6-21.97-11.26-18.22-12.54-33.72-28.59-45.23-46.82,20.54-5.1,43.55-2.39,61.89,8.3s31.48,29.46,33.42,49.47"/>
  <path id="Hoja83" class="cls-4" d="M1822.82,187.64c2.53-4.78,7.05-8.02,12-9.73,4.95-1.71,10.34-2.01,15.69-1.86,14.4.41,28.97,4.03,42.51,10.57-7.92,11.26-20.42,18.75-34.08,19.51s-28.24-5.46-37.84-16.88"/>
  <path id="Rama18" class="cls-2" d="M1923.57,155.46c-17.45-12.43-40.66-13.34-60.4-6.16-21.22,7.72-37.41,23.85-48.11,43.46-25.38,46.53-18.74,101.53-33.72,151.08-8.13,26.88-21.52,52.15-39.19,73.98-4.82,5.95,3.62,14.49,8.49,8.49,15.09-18.63,27.22-39.2,36.07-61.49,9.46-23.81,13.7-48.71,16.74-74.03,2.92-24.3,5.3-48.84,13.31-72.12,7.02-20.4,18.98-40.74,37.9-52.13,19.07-11.48,44.07-14.1,62.86-.72,6.3,4.49,12.3-5.91,6.06-10.36h0Z"/>
</svg>